<svg width="80" height="80" viewBox="0 0 80 80" fill="none" xmlns="http://www.w3.org/2000/svg">
<g id="Linear / Faces, Emotions, Stickers / Smile Square">
<path id="Vector" d="M30 53.3334C32.8346 55.4345 36.2819 56.6667 40 56.6667C43.7181 56.6667 47.1654 55.4345 50 53.3334" stroke="#1C274C" stroke-width="1.5" stroke-linecap="round"/>
<ellipse id="Vector_2" cx="50" cy="35" rx="3.33333" ry="5" fill="#1C274C"/>
<ellipse id="Vector_3" cx="30" cy="35" rx="3.33333" ry="5" fill="#1C274C"/>
<path id="Vector_4" d="M6.66667 40C6.66667 24.2865 6.66667 16.4297 11.5482 11.5482C16.4298 6.66663 24.2865 6.66663 40 6.66663C55.7135 6.66663 63.5702 6.66663 68.4518 11.5482C73.3333 16.4297 73.3333 24.2865 73.3333 40C73.3333 55.7134 73.3333 63.5702 68.4518 68.4517C63.5702 73.3333 55.7135 73.3333 40 73.3333C24.2865 73.3333 16.4298 73.3333 11.5482 68.4517C6.66667 63.5702 6.66667 55.7134 6.66667 40Z" stroke="#1C274C" stroke-width="2"/>
</g>
</svg>
