<?xml version="1.0" encoding="UTF-8"?>
<!--Generator: Apple Native CoreSVG 326-->
<!DOCTYPE svg
PUBLIC "-//W3C//DTD SVG 1.1//EN"
       "http://www.w3.org/Graphics/SVG/1.1/DTD/svg11.dtd">
<svg version="1.1" xmlns="http://www.w3.org/2000/svg" xmlns:xlink="http://www.w3.org/1999/xlink" viewBox="0 0 22.2034 22.6075">
 <g>
  <rect height="22.6075" opacity="0" width="22.2034" x="0" y="0"/>
  <path d="M15.9111 19.3263C15.6879 19.8857 15.1504 20.2588 14.4904 20.2588C13.9044 20.2588 13.4454 20.0342 12.8839 19.5069L8.92885 15.791C8.87025 15.7422 8.80677 15.7276 8.73353 15.7276L6.01869 15.7276C4.40736 15.7276 3.52357 14.8145 3.52357 13.1201L3.52357 9.50686C3.52357 8.6728 3.73897 8.02796 4.15183 7.58969ZM16.0236 3.92092L16.0236 13.4211L9.18798 6.58923L12.8839 3.14455C13.4845 2.57815 13.9191 2.35842 14.4757 2.35842C15.3644 2.35842 16.0236 3.0469 16.0236 3.92092Z" fill="black" fill-opacity="0.85"/>
  <path d="M19.5001 21.0645C19.8224 21.3819 20.3449 21.3867 20.6622 21.0645C20.9699 20.7422 20.9796 20.2246 20.6622 19.9072L2.95228 2.20705C2.63002 1.88479 2.09779 1.88479 1.78041 2.20705C1.46791 2.51955 1.46791 3.05666 1.78041 3.36916Z" fill="black" fill-opacity="0.85"/>
 </g>
</svg>
