<?xml version="1.0" encoding="UTF-8"?>
<!--Generator: Apple Native CoreSVG 326-->
<!DOCTYPE svg
PUBLIC "-//W3C//DTD SVG 1.1//EN"
       "http://www.w3.org/Graphics/SVG/1.1/DTD/svg11.dtd">
<svg version="1.1" xmlns="http://www.w3.org/2000/svg" xmlns:xlink="http://www.w3.org/1999/xlink" viewBox="0 0 29.5752 20.5482">
 <g>
  <rect height="20.5482" opacity="0" width="29.5752" x="0" y="0"/>
  <path d="M24.7461 20.3669C25.3271 20.7184 26.0596 20.5475 26.4307 19.9518C28.1787 17.2077 29.2139 13.8923 29.2139 10.2839C29.2139 6.67547 28.1641 3.36492 26.4307 0.620784C26.0596 0.015315 25.3271-0.145818 24.7461 0.205745C24.126 0.576838 24.0332 1.33367 24.4482 2.01727C25.9131 4.35614 26.7969 7.19305 26.7969 10.2839C26.7969 13.3698 25.9131 16.2214 24.4482 18.5554C24.0332 19.2389 24.126 19.9909 24.7461 20.3669Z" fill="black" fill-opacity="0.85"/>
  <path d="M20.3564 17.6276C20.9326 17.9694 21.6357 17.8278 22.0117 17.2565C23.3203 15.3229 24.0674 12.8473 24.0674 10.2692C24.0674 7.6911 23.3252 5.20574 22.0117 3.27703C21.6357 2.71063 20.9326 2.56903 20.3564 2.91082C19.7217 3.28192 19.6436 4.0534 20.0781 4.74676C21.0742 6.28485 21.6455 8.23797 21.6455 10.2692C21.6455 12.3005 21.0645 14.2389 20.0781 15.7868C19.6484 16.4802 19.7217 17.2565 20.3564 17.6276Z" fill="black" fill-opacity="0.85"/>
  <path d="M15.957 14.9079C16.5039 15.2497 17.1973 15.1227 17.5586 14.61C18.4033 13.4528 18.9062 11.9001 18.9062 10.2692C18.9062 8.63836 18.4033 7.09051 17.5586 5.91864C17.1973 5.41571 16.5039 5.27899 15.957 5.63055C15.3467 6.01141 15.2148 6.73895 15.708 7.54461C16.2012 8.2868 16.4795 9.25848 16.4795 10.2692C16.4795 11.28 16.1963 12.2419 15.708 12.9938C15.2197 13.7995 15.3467 14.5222 15.957 14.9079Z" fill="black" fill-opacity="0.85"/>
  <path d="M10.9619 19.2292C11.8408 19.2292 12.4951 18.5749 12.4951 17.7009L12.4951 2.89129C12.4951 2.01727 11.8408 1.32879 10.9521 1.32879C10.3857 1.32879 9.95605 1.54852 9.36035 2.11492L5.40039 5.79657C5.34668 5.84539 5.2832 5.87469 5.20996 5.87469L2.49512 5.87469C0.878906 5.87469 0 6.78778 0 8.47723L0 12.0905C0 13.7848 0.878906 14.6979 2.49512 14.6979L5.20508 14.6979C5.27832 14.6979 5.3418 14.7126 5.39551 14.7614L9.36035 18.4772C9.91699 19.0046 10.376 19.2292 10.9619 19.2292Z" fill="black" fill-opacity="0.85"/>
 </g>
</svg>
