<svg width="21" height="20" viewBox="0 0 21 20" fill="none" xmlns="http://www.w3.org/2000/svg">
<g id="check_circle_on_24">
<path id="&#226;&#134;&#179; Icon Color" fill-rule="evenodd" clip-rule="evenodd" d="M10.162 20C15.6848 20 20.162 15.5228 20.162 10C20.162 4.47715 15.6848 0 10.162 0C4.63914 0 0.161987 4.47715 0.161987 10C0.161987 15.5228 4.63914 20 10.162 20ZM15.4524 7.79044C15.843 7.39992 15.843 6.76675 15.4524 6.37623C15.0619 5.9857 14.4287 5.9857 14.0382 6.37623L8.49532 11.9191L6.28576 9.70956C5.89524 9.31904 5.26207 9.31904 4.87155 9.70956C4.48102 10.1001 4.48102 10.7332 4.87155 11.1238L7.78821 14.0404C8.17874 14.431 8.8119 14.431 9.20243 14.0404L15.4524 7.79044Z" fill="black"/>
</g>
</svg>
